<svg xmlns="http://www.w3.org/2000/svg" width="29.731" height="29.784" viewBox="0 0 29.731 29.784">
  <path id="_13003354851543238910" data-name="13003354851543238910" d="M19.222,6.29a6.612,6.612,0,0,1,5.224,5.224M19.222,1A11.9,11.9,0,0,1,29.736,11.5M28.414,22.054v3.967a2.645,2.645,0,0,1-2.883,2.645,26.172,26.172,0,0,1-11.413-4.06,25.788,25.788,0,0,1-7.935-7.935A26.172,26.172,0,0,1,2.123,5.206,2.645,2.645,0,0,1,4.754,2.322H8.722A2.645,2.645,0,0,1,11.367,4.6a16.981,16.981,0,0,0,.926,3.716,2.645,2.645,0,0,1-.6,2.79l-1.68,1.68a21.16,21.16,0,0,0,7.935,7.935l1.68-1.68a2.645,2.645,0,0,1,2.79-.6,16.981,16.981,0,0,0,3.716.926A2.645,2.645,0,0,1,28.414,22.054Z" transform="translate(-1.111 0.104)" fill="none" stroke="#fff" stroke-linecap="round" stroke-linejoin="round" stroke-width="2"/>
</svg>
