<svg xmlns="http://www.w3.org/2000/svg" width="94.134" height="485.37" viewBox="0 0 94.134 485.37">
  <path id="Path_979" data-name="Path 979" d="M49.072,19.2a.1.1,0,0,1,.1-.1,9.213,9.213,0,0,1,3.1-4.1c.7-.4.4-1.1-.9-1.9a51.245,51.245,0,0,0-5.3-2.5c-1.1-.5-1.7-.2-1.6.9-.3,2.7-4.1,10-11.4,22.1-7.6,11-15.2,19.8-23,26.4-2.4,2.1-2.4,3.1-.1,2.9,4.5-.2,9.1-2,13.8-5.1,1-.7,1.4-1.3,1.4-1.9a9.567,9.567,0,0,1,3.2-6.9,70.016,70.016,0,0,0,9-10.5c1.5-2.5,3.6-5.7,6.1-9.7-.1,0,0-.2.2-.4,1.3-.7,3.6-.2,6.9,1.6,4,1.7,7,3.7,8.8,6.1a18.984,18.984,0,0,0,8.6,6.4c3,1.7,5.1,3.3,6.1,5.1a11.21,11.21,0,0,1,.6,5.1c-.3.9,4.3,2.5,13.6,4.7a64.536,64.536,0,0,0,10.6,1.4c.8,0,1.3-.3,1.3-.7a2.236,2.236,0,0,0-.6-1.3,107.757,107.757,0,0,0-14.2-10c-4.4-1.9-9.5-5.5-15.2-10.8a108.3,108.3,0,0,0-13.6-10.3C52.872,23.7,50.372,21.6,49.072,19.2Zm3.6,54.2c-.2,0-.1-.1.1-.1,2.5-.9,6-2.5,10.5-4.6,3.3-1.5,5.3-2.3,6.1-2.3.7,0,.4-1-1-2.7a25.064,25.064,0,0,0-2.5-3.4c-.8-.7-1.2-.8-1.4-.3-1.4,1.6-4.7,4.2-9.9,7.6-.8.6-1.5,1.1-2.1,1.6-.2-2.7-.2-5.8-.2-9.1,5.5-1.2,8.9-2.3,10.3-3.4.5-1,.4-2.9-.2-5.4q-.15-.3-2.4,0c-1.3.3-3.4.7-6.4,1.2a3.506,3.506,0,0,0-1.6.3c-.1-3.1.2-5,.8-5.8a18.487,18.487,0,0,1,2.3-.9,15.775,15.775,0,0,0,3.1-1.4c.8-1.2.8-3.5-.1-6.6-.2-.2-1.1-.2-2.9,0-2.7.2-7.5,1.4-14.3,3.4a1.087,1.087,0,0,1-.5.1c-3.7.8-5.7,1.4-5.9,1.7a8.59,8.59,0,0,0,.4,3.9,10.693,10.693,0,0,0,1.6,4.3c.5.7,1.1.5,1.7-.5.6-.9,2.2-1.6,4.7-2,.8.9,1.3,2.9,1.6,6a49.383,49.383,0,0,1-11.1,2.7,1.837,1.837,0,0,0-1.2.8c-.2.5,0,1.5.4,3a12.3,12.3,0,0,0,1.2,3.5c.5.5,1,.3,1.5-.4q.75-1.5,9.6-3.6c0,.9,0,1.9.1,3.1-.1,1.4-.1,2.8-.1,4.1-.8,0-4.1,1-10,3.1-2.8,1-4.5,1.5-5.1,1.4-.6.1-.4.9.8,2.7.9,1.5,1.7,2.6,2.4,3.6.4.7.9.8,1.3.4.2-.9,3.7-3.5,10.6-7.8a39.843,39.843,0,0,1-1.1,8.5c-2.1.4-4.4.9-6.6,1.5-6,1.3-9.7,1.9-11.3,1.7-.8,0-.8.5-.5,1.4a43.482,43.482,0,0,0,3.3,5.4c.2.1,1.3,0,3.5-.6,4.1-1.4,11.1-2.7,21.1-3.9,10.1-1.2,17.6-.9,22.3.8,1.1.5,1.7.4,1.7-.2a43.723,43.723,0,0,0,.3-4.5,3.561,3.561,0,0,0-1.1-2.1,7.192,7.192,0,0,1-2.2-3.4,1.293,1.293,0,0,0-1.5-.4,12.279,12.279,0,0,1-4.4.9,125.23,125.23,0,0,0-14.5,1.5A9.591,9.591,0,0,1,52.672,73.4Zm-1.8,110.8c-1,.6-1.5,1.9-1.5,4a6.033,6.033,0,0,1-.3,3c-.3.8-.1,1.3.5,1.5a2.178,2.178,0,0,0,.9.7c.9.5,3.1,1,6.5,1.4a2.044,2.044,0,0,0,1.6-.5,1.938,1.938,0,0,0,1.1-1.6c.1-.5-.4-1.2-1.4-2-3-2.5-4.7-4.5-5.3-5.8a.781.781,0,0,0-.4-.4c1.6-1.3,4.7-2.3,9.5-3,.5,13.8.5,21-.3,21.8q-.6.6-3.3.3a40.1,40.1,0,0,1-7.9-2.5c-1.4-1-2.3-1.4-2.6-1.2q-.3.45,1.2,2.1a40.015,40.015,0,0,0,18.2,10.5c1.6.6,2.3.3,2.1-.7-1-5-1.4-15.4-1.4-31.2a16.544,16.544,0,0,1,9.6.1c.6.1,1.1-.3,1.6-1.1a2.608,2.608,0,0,0-.2-2.4,20.733,20.733,0,0,1-2.6-4.8c-.3-1.1-.8-1.4-1.5-.8a19.792,19.792,0,0,1-4.4,1.5c-.8.2-1.5.3-2.1.5.5-6,1.1-9.4,1.7-10.3,0-.1,0-.2.1-.2a35.946,35.946,0,0,0,11.6.5,16.965,16.965,0,0,1,3.8.1,2.257,2.257,0,0,0,1.1-.5,2.043,2.043,0,0,0-.1-1.3c-5.1-8.3-9.1-13.1-12-14.2a21.915,21.915,0,0,0-5.2-1.2c-3.2-.6-8.1-.2-14.8,1.1a34.858,34.858,0,0,0-11.2,3.2c-3.2,1.2-6.4,2.3-9.7,3.5-.4.4-.2,1.3.4,2.8.3,1.2.7,1.7,1.1,1.7.1.2.9-.1,2.3-.9,2.5-1.6,7.6-2.8,15.2-3.8,9.7-2.4,15.7-3.4,18.1-2.8.1.1.1.1.2.1,2.6.7,4,1.9,4.4,3.5a4.033,4.033,0,0,1-.6,2.7,7.777,7.777,0,0,1-6.1,3.2l-.2.1c-1.6-.5-3.5-1.2-5.9-1.8-1,0-1.3,1-.9,3.1,0,.8,0,5,.1,12.6-7.6,1.2-11.6,1.7-11.7,1.7-.8-.1-1.2.4-1.1,1.5A11.723,11.723,0,0,0,50.872,184.2Zm41.8,34.9c-1-11.9-3.8-21.9-8.2-30.1a.31.31,0,0,1-.1-.2c-.6-.9-.9-1.3-1-1.1-.4.4-.3,1.1.1,2.2,3.6,14.2,1.9,22.3-5.1,24.5-4.8,1.5-11.9,2.2-21.4,2a48.366,48.366,0,0,1-8.6-.9c-2.5-.8-4.2-1.9-5-3.1-1.6-2.7-1.3-9.5.7-20.3a7.2,7.2,0,0,1,1-2.4c.6-.7-.4-1.2-3.2-1.4-1.8-.3-3-.3-3.5.1a1.71,1.71,0,0,0-.3,1.5,34.674,34.674,0,0,1-.2,4.4,57.141,57.141,0,0,0-.9,12.8c.1,4.9,2.5,9.1,7.2,12.5,3.9,3.2,7.4,4.6,10.5,4.6a101.338,101.338,0,0,1,11.5-.4,49.537,49.537,0,0,0,9.1-.4q5.1-.3,8.1-.6a62.087,62.087,0,0,0,7.9-1.1c1.1-.1,1.7-.5,1.7-1.1Zm-63.1-30.8c-1.5,9-8.2,18.5-19.8,28.6-1.4,1.6-1.3,2.2.6,2a19.323,19.323,0,0,0,7.6-1.4c1.4-.7,3.7-2.3,7.1-4.6a2.04,2.04,0,0,0,.9-2,4.2,4.2,0,0,1,.5-4,44.19,44.19,0,0,0,9.6-17.9,13.62,13.62,0,0,1,1.3-3.5c4.6-1.7,7.7-2.4,8.8-2q1.2.3,1.2-.9a15.772,15.772,0,0,0-1.2-4.7c-.3-.9-.7-1.3-1.4-1.1-1.1.4-2.2.7-3.2,1-10.9,3.4-17.6,5.6-20.4,6.8a51.844,51.844,0,0,1-7.2,2.2c-.7.2-.8.6-.3,1.4a55.045,55.045,0,0,0,4.1,5.6,1.075,1.075,0,0,0,1.4.1A32.789,32.789,0,0,1,29.572,188.3Zm4.4-22.1c-3.6.9-5.6,1.2-6.2,1-.5-.1-.6.4-.4,1.5a31.389,31.389,0,0,0,2.9,7.4c.2.6.7.7,1.3.2q1.05-1.5,9-3.3c4.1-1.1,6.3-2.4,6.8-3.8v-.4c-.2-1.6-.4-3.2-.5-4.6-.1-.6-.4-.8-1-.6C39.472,165,35.472,165.9,33.972,166.2Zm-6.3-10.2a31.981,31.981,0,0,0-7,4.9c-.9.6-1.6,1.1-2.2,1.5-.5.3-.6.6-.4,1a12.971,12.971,0,0,0,7.2,6c.9.3,1.4,0,1.4-.8a36.147,36.147,0,0,1,2-11.9c.3-.4.3-.6,0-.8A1.211,1.211,0,0,0,27.672,156Zm20.9,174.9q-1.65.3-1.5,1.2c.3,1.2.7,2.6,1.1,4.1,0,.4.6.5,1.6.2q4.2-.9,9.9-2.1c4.2-.8,7-1.3,8.1-1.6.8-.2,1.3-.6,1.3-1.3a32.411,32.411,0,0,0-.6-4c-.2-.6-.8-.8-1.9-.5C64.472,327.2,58.472,328.6,48.572,330.9Zm3.2-12c-.8,1.7-2.8,3.9-6.1,6.9,0-4.5.3-7.9,1.2-10.4.4-1.3,2.5-2.5,6.2-3.5A35.134,35.134,0,0,1,51.772,318.9Zm-6.3,9.6c2.7-.4,5.9-1.9,9.4-4.8a4.348,4.348,0,0,1,.7-.6,2.036,2.036,0,0,0,1-2.5c-.6-1.9-.5-5.2.4-9.9,1.4-.4,3.1-.8,5-1.2,0,6.7.8,10.9,2.6,12.7a8.2,8.2,0,0,0,6.7,1.5,2.894,2.894,0,0,0,2-.9,8.114,8.114,0,0,0-.1-4.1c-.1-.6-.7-.9-1.9-.8-1.8,0-2.8-.1-3-.4-1.5-1.1-2.2-4.1-2-9a17.574,17.574,0,0,1,4.9-.9,2.539,2.539,0,0,1,1.9,1.5c1.9,2.5,2.4,13.8,1.8,34a2.483,2.483,0,0,0-.1.9,2.57,2.57,0,0,1-1.2,2.2,3.207,3.207,0,0,1-1.9.6,25.9,25.9,0,0,1-5.3-.3c-1.4-.5-2.1-.6-2.3-.2-.2.3.4,1,1.6,2,3.1,3,8,5.7,14.6,8.2,1.6.8,2.5.5,2.5-.6-.1-1.3-.1-3.8-.1-7.4.2-10.4,0-20-.6-28.6-.3-7,.2-11.3,1.4-13,.8-.9.7-1.7-.4-2.1q-9.9-3.15-16.5-1.2a19.546,19.546,0,0,1,3.3-10.1c7.1-.6,12.3-.4,15.4.7,1.1.5,1.7.4,1.7-.3a13.569,13.569,0,0,1,.1-1.8,6.937,6.937,0,0,0-1.9-5.4,16.679,16.679,0,0,1-1.7-2.6c-.2-.5-.7-.6-1.4-.3a22.36,22.36,0,0,1-4,.9,176.98,176.98,0,0,0-28.4,5.8c-5.6,1.7-8.9,2.4-10.1,2.2-.8,0-.9.4-.5,1.1a15.981,15.981,0,0,0,3.1,4.8c.2.4.8.4,1.6,0a20.72,20.72,0,0,1,4-1.1,96.8,96.8,0,0,1,14.2-3,27.815,27.815,0,0,1,.3,8.4,8.083,8.083,0,0,0-.1,1.6,33.672,33.672,0,0,0-4.8,1.2,13.009,13.009,0,0,1,.5-4.7c.3-1.3,0-2.1-.9-2.3a17.529,17.529,0,0,0-4.7-.5c-.9.2-1.1.9-.6,2.3a13.707,13.707,0,0,1,1.5,6.1,41.444,41.444,0,0,0-8.9,3.1,2.944,2.944,0,0,1-1.8.6c-.6,0-.9.8-1,2.3-2,14.1-2.4,24.6-1.2,31.6a18.272,18.272,0,0,0,2.9,7.3c.4.5,1,.2,1.8-1.2,1.3-2.1,6.2-3.8,14.6-5.2,4.7-.9,7.6-1.3,8.6-1.2,1.3.1,1.8-.2,1.5-.8a43.7,43.7,0,0,0-1.8-4.6c-.4-.6-.8-.9-1.3-.7a34.361,34.361,0,0,1-7,1.5,60.76,60.76,0,0,0-12,2.4c-1.3.5-1.9-.1-2.1-1.7A72.884,72.884,0,0,1,45.472,328.5Zm-24.5,22.7a25.632,25.632,0,0,0,2.3,2.7c.6.8,1,.6,1.3-.4a41.421,41.421,0,0,1,2.7-4.7c6.2-9.5,9.3-19.2,9.1-29.1-.1-1.9-.3-3-.7-3-.3-.1-.6.9-1,3a50.766,50.766,0,0,1-3.4,12.5c-2,4.2-3.9,7.2-6.1,8.9-1.8,1.7-3.5,2.4-4.9,2.2-.8-.2-1.3-1.2-1.5-3.1-.6-4.3.1-9.3,2.1-15.2a18.448,18.448,0,0,1,6.4-10.1c2.6-1.6,3-3.4,1.1-5.1-.9-.8-2-1.9-3.3-3.1-.9-.6-1.6-.3-2.2,1.1-6.4,12.3-8.4,23.5-5.9,33.6A37.1,37.1,0,0,0,20.972,351.2Zm4.8-68.1c-2.1,3.8-2.2,8-.3,12.7a.774.774,0,0,0,.1.3,2.413,2.413,0,0,0,2.4,1.5c1.2.1,2.3.1,3.5.3a20.566,20.566,0,0,0,3.9.3q1.05,0,2.1-1.8a1.352,1.352,0,0,0,0-1.5,16.826,16.826,0,0,0-2.4-2.9,16.8,16.8,0,0,1-3.9-6.9c-.8-2.5-2.1-3.6-4.1-3.2h-.1Q26.372,282.05,25.772,283.1Zm41.4,185.7a36.99,36.99,0,0,1-4.4,6.7c-1.4-.3-2.8-.7-4.2-1.1-1-.2-1.6-.5-1.7-.9,0-.9.6-2.2,1.8-4,.2,0,.4-.1.6-.1a23.226,23.226,0,0,0,3.9-.7c1-.2,2.5-.4,4.4-.6C67.472,468.2,67.372,468.5,67.172,468.8Zm-8.8,11.4c-.1.2-.3.3-.4.5a42.712,42.712,0,0,1-17.1,6.9,4.592,4.592,0,0,1-1,.1c-1.9.4-1.8,1.1.3,2a17.763,17.763,0,0,0,10.6,1.9,1.564,1.564,0,0,0,1.5-1.2c.3-1.6,1.6-2.8,3.7-3.4a71.23,71.23,0,0,0,7.7-4.8c9.3,3.7,15.5,7.3,18.5,10.9.9,1,1.5.7,1.9-.8a9.032,9.032,0,0,0,.3-6.9,12.42,12.42,0,0,1-.9-3.7c-.1-.7-1.6-1.4-4.5-2.2s-6.4-1.7-10.7-2.8a81.094,81.094,0,0,0,5.6-8.9c5.1-.7,11.2.4,18.5,3.3l.4.2c.8.4,1.3-.2,1.3-1.9.2-2.5.1-4-.3-4.4a10.077,10.077,0,0,1-2.4-4.2c-.3-.6-1.1-.8-2.4-.4a29.567,29.567,0,0,1-6.1.2c-2.6,0-4.9.1-7.1.3a9.719,9.719,0,0,0-2.5-1.9c-.8-.4-1.4-.1-1.8,1a7.254,7.254,0,0,0-.5,1.2,37.421,37.421,0,0,0-7.5,1.2c-.1-.1,0-.2.2-.2.4-.6.7-1,.7-1.3-.1-.3-1.1-.9-3-1.7-2.7-1.1-4-1.3-4.1-.5a39.54,39.54,0,0,1-1.6,5.4,33.1,33.1,0,0,0-4.2,1.2c-3.3,1-7.9,2.2-13.8,3.5-.6.1-.7.9-.2,2.4a17.032,17.032,0,0,0,1.7,3.2c.3.7.9.6,1.7-.2.5-.9,4-2,10.4-3.4a6.96,6.96,0,0,1,1.6-.2c-.9,1.7-1.7,3.1-2.5,4.5a3.392,3.392,0,0,0-.5,1.4c0,.4.3.7,1.1.9C53.572,478.3,56.072,479.2,58.372,480.2Zm1.5-42.4a6.1,6.1,0,0,0-1.6,1.7l-.1.1a49.125,49.125,0,0,0-5.1,1.5,33.582,33.582,0,0,1-6.6,1.6,3.944,3.944,0,0,0-2.2.4c-.6.1-.7.3-.3.9,1.3,2.2,2.3,4.1,3.2,5.8.2.7.6.8,1,.4a20.913,20.913,0,0,1,8.6-3.6l-13.2,15.9c-.5.6-.1.9,1.1.9,2.9,0,7.6-3.6,13.8-11a2.078,2.078,0,0,1,1.1-1c-.1,1.6-.2,3.3-.3,4.9-.4,1.3,0,1.8,1,1.6,1.1-.2,2.3-.4,3.7-.7.6-.1.9-.8.7-2a29.061,29.061,0,0,1-.4-5.7,69.333,69.333,0,0,1,13.3,8.3c.5.5,1,.6,1.4.3,1-.4,1.5-.9,1.4-1.5-.5-4.1-.7-6.1-.7-6.2a1.773,1.773,0,0,0-.8-1.4,54.8,54.8,0,0,0-14.6-2.1,24.517,24.517,0,0,0,.2-2.7c5.9-1.7,10.4-2.8,13.6-3q.75.15.6-1.5c-.2-1.1-.3-2.6-.5-4.4-.4-.7-.7-1.1-1.1-.9-2,.7-6,1.8-11.8,3.4a114.316,114.316,0,0,0,8.3-8,36.011,36.011,0,0,1,4.7-4.3c.2-.2.6-.4,1-.7.2-.2.2-.5-.1-1-.5-.6-1.6-1.6-3.3-3.2-.8-.7-1.4-.5-1.9.6a112.943,112.943,0,0,1-9,10.9c.2-11.4,1-17.8,2.4-18.9.6-.5.2-1.2-1.3-2a24.69,24.69,0,0,0-5.3-1.1c-1.4-.1-1.9.4-1.7,1.6.2,2.1.5,6.6.7,13.9-8.8,2.3-13.4,3.5-13.7,3.5-.2,0-.2-.1-.2-.1q-.9-.45-.6.9a17.777,17.777,0,0,0,.8,1.8,7.884,7.884,0,0,1,2.1,2.7,3.656,3.656,0,0,0,1.6,1.2c.6.4,1.1.3,1.3-.4a3.4,3.4,0,0,1,1.2-1.2c2.8-2.6,5.4-4.8,7.5-6.6C59.772,430.8,59.772,434.3,59.872,437.8Zm-24.5,18.1c1.1.5,2.1.9,2.9,1.3,1.2.4,2.1.4,2.5-.1a6.508,6.508,0,0,0,.9-3.5c0-1.1-1.1-2.3-3.2-3.8-.9-.8-1.8-1.7-2.9-2.7a7.569,7.569,0,0,1,.1-1.5,61.105,61.105,0,0,0,6.9-3.8,1.09,1.09,0,0,0,.6-1.3c-.3-1.5-.5-2.9-.7-4.3-.1-.5-.4-.7-.8-.6-2,.7-4,1.3-5.8,1.9,0-.1,0-.2.1-.2.3-4.7.7-10.1,1.1-15.9a6.112,6.112,0,0,1,1.5-4.5c.9-.8.7-1.3-.7-1.6a28.682,28.682,0,0,0-5.2-1.2c-1.6-.1-2.3,0-2,.8.2.4,0,8.4-.6,24.1-.6,0-4.1.7-10.4,2.2-4.1,1.2-6.5,1.6-7.1,1.4-.6,0-.7.5-.3,1.6a50.593,50.593,0,0,0,2.4,6c.5.9.9,1.5,1.2,2.1.4.6.8.7,1.4.2,1.2-1.6,5.4-3.3,12.6-5-.1,4.8-5.8,12.6-17.4,23.6-3.7,3.6-5.7,5.5-6.1,5.9q-1.05,1.05,1.2,1.2c3.7.2,10.4-4.5,20.3-14.1a7.337,7.337,0,0,1,1.8-1.4,45.634,45.634,0,0,0,.2,6.4c.1,7.5.1,13.9-.1,19.1,0,1.3-.8,2.3-2.5,3.1-1,.7-.9,1.3.4,1.9a16.848,16.848,0,0,0,5.7,2.4c1,.4,1.5-.1,1.3-1.3.1-1,.2-2.8.2-5.2C34.972,468.6,35.172,457.5,35.372,455.9Z" transform="translate(-6.037 -10.366)" fill="#d3b95d"/>
</svg>
